<svg xmlns="http://www.w3.org/2000/svg" viewBox="0 0 64 64">
  <rect width="64" height="64" fill="#0c0d0f"/>
  <rect x="8" y="8" width="48" height="48" fill="#191d22" stroke="#d8a84f" stroke-width="2"/>
  <path d="M19 44V20h17v5H25v5h10v5H25v9h-6Zm21 0c-3 0-6-.7-8-2.2l2.4-4.5c1.8 1.1 3.7 1.7 5.7 1.7 2.2 0 3.4-.6 3.4-1.8 0-1.1-1-1.7-4.1-2.3-4.6-.9-7-2.6-7-7 0-4.6 3.6-8 9.2-8 2.5 0 5 .6 7 1.8l-2.2 4.5c-1.8-.9-3.5-1.4-5.2-1.4-2.1 0-3.3.8-3.3 2 0 1.1 1 1.7 4.2 2.3 4.6.9 6.9 2.7 6.9 6.9 0 4.9-3.7 8-10 8Z" fill="#f4f0e8"/>
</svg>
